HIERARCHY
ROOT Hips
{
 OFFSET 0.000000 0.000000 0.000000
 CHANNELS 6 Xposition Yposition Zposition Yrotation Xrotation Zrotation
 JOINT Chest
 {
  OFFSET 0.000000 8.777825 -6.552462
  CHANNELS 3 Yrotation Xrotation Zrotation
  JOINT Chest2
  {
   OFFSET 0.000000 7.383841 -0.000881
   CHANNELS 3 Yrotation Xrotation Zrotation
   JOINT Chest3
   {
    OFFSET 0.000000 10.555540 0.000455
    CHANNELS 3 Yrotation Xrotation Zrotation
    JOINT Chest4
    {
     OFFSET 0.000000 10.885962 0.000501
     CHANNELS 3 Yrotation Xrotation Zrotation
     JOINT Neck
     {
      OFFSET 0.000000 17.548373 -0.000425
      CHANNELS 3 Yrotation Xrotation Zrotation
      JOINT Head
      {
       OFFSET 0.000000 9.021468 0.000000
       CHANNELS 3 Yrotation Xrotation Zrotation
       End Site
       {
        OFFSET 0.000000 13.152816 0.000000
       }
      }
     }
     JOINT RightCollar
     {
      OFFSET -2.801089 10.967333 -0.000212
      CHANNELS 3 Yrotation Xrotation Zrotation
      JOINT RightShoulder
      {
       OFFSET -15.865440 0.000000 0.000000
       CHANNELS 3 Yrotation Xrotation Zrotation
       JOINT RightElbow
       {
        OFFSET -26.521401 0.000000 0.000000
        CHANNELS 3 Yrotation Xrotation Zrotation
        JOINT RightWrist
        {
         OFFSET -23.907282 0.000000 -0.001304
         CHANNELS 3 Yrotation Xrotation Zrotation
         End Site
         {
          OFFSET -17.515647 0.653783 0.097580
         }
        }
       }
      }
     }
     JOINT LeftCollar
     {
      OFFSET 2.801089 10.967333 -0.000212
      CHANNELS 3 Yrotation Xrotation Zrotation
      JOINT LeftShoulder
      {
       OFFSET 15.865440 0.000000 0.000000
       CHANNELS 3 Yrotation Xrotation Zrotation
       JOINT LeftElbow
       {
        OFFSET 26.521401 0.000000 0.000000
        CHANNELS 3 Yrotation Xrotation Zrotation
        JOINT LeftWrist
        {
         OFFSET 23.907282 0.000000 -0.001304
         CHANNELS 3 Yrotation Xrotation Zrotation
         End Site
         {
          OFFSET 17.515647 0.653783 0.097580
         }
        }
       }
      }
     }
    }
   }
  }
 }
 JOINT RightHip
 {
  OFFSET -9.477029 -0.000305 0.000048
  CHANNELS 3 Yrotation Xrotation Zrotation
  JOINT RightKnee
  {
   OFFSET 0.000000 -47.500497 0.009605
   CHANNELS 3 Yrotation Xrotation Zrotation
   JOINT RightAnkle
   {
    OFFSET 0.000000 -41.890050 0.114765
    CHANNELS 3 Yrotation Xrotation Zrotation
    JOINT RightToe
    {
     OFFSET 0.000000 -8.242463 17.660639
     CHANNELS 3 Yrotation Xrotation Zrotation
     End Site
     {
      OFFSET 0.000000 -1.027352 5.005374
     }
    }
   }
  }
 }
 JOINT LeftHip
 {
  OFFSET 9.477029 -0.002494 0.000395
  CHANNELS 3 Yrotation Xrotation Zrotation
  JOINT LeftKnee
  {
   OFFSET 0.000000 -47.500497 0.009605
   CHANNELS 3 Yrotation Xrotation Zrotation
   JOINT LeftAnkle
   {
    OFFSET 0.000000 -41.890050 0.114765
    CHANNELS 3 Yrotation Xrotation Zrotation
    JOINT LeftToe
    {
     OFFSET 0.000000 -8.242463 17.660639
     CHANNELS 3 Yrotation Xrotation Zrotation
     End Site
     {
      OFFSET 0.000000 -1.027352 5.005374
     }
    }
   }
  }
 }
}
MOTION
Frames: 5
Frame Time: 0.004167
0.000000 100.478824 0.000000 0.000000 0.000000 0.000000 0.000000 0.000000 0.000000 0.000000 0.000000 0.000000 0.000000 0.000000 0.000000 0.000000 0.000000 0.000000 0.000000 0.000000 0.000000 0.000000 0.000000 0.000000 0.000000 0.000000 0.000000 0.000000 0.000000 0.000000 0.000000 0.000000 0.000000 0.000000 0.000000 0.000000 0.000000 0.000000 0.000000 0.000000 0.000000 0.000000 0.000000 0.000000 0.000000 0.000000 0.000000 0.000000 0.000000 0.000000 0.000000 0.000000 0.000000 0.000000 0.000000 0.000000 0.000000 0.000000 0.000000 0.000000 0.000000 0.000000 0.000000 0.000000 0.000000 0.000000 0.000000 0.000000 0.000000 0.000000 0.000000 0.000000
11.098892 99.162207 12.123927 0.599377 8.963220 0.105012 0.682099 -0.032174 -0.765562 0.403359 -13.539006 -0.385134 0.272599 -0.453429 -0.208211 0.067510 9.369671 -0.060389 -1.329204 -1.239498 0.588928 -2.479307 -2.290759 1.116816 -2.608453 -5.746399 7.852890 -4.892369 -3.426583 63.712724 7.211276 0.596541 1.052816 -4.162020 0.510302 9.555658 -0.450714 -6.803272 -6.241766 8.235396 -6.733207 -67.416500 -8.070001 -5.690233 -5.357780 4.004894 -0.478664 -8.039815 -2.846646 -5.009069 -0.639596 0.855696 1.444816 -0.146059 3.235368 -6.770908 1.024246 -0.000000 -0.000000 -0.000000 2.999388 -4.721328 -0.209532 -0.197872 0.369296 0.127917 0.785058 -6.096615 -0.442603 0.000000 -0.000000 0.000000
11.097172 99.158836 12.130618 0.596483 8.941443 0.104265 0.678035 -0.029603 -0.761174 0.400978 -13.537772 -0.382926 0.270991 -0.452560 -0.207030 0.067110 9.369921 -0.060046 -1.327225 -1.233907 0.589007 -2.475581 -2.280393 1.116824 -2.605825 -5.726075 7.852039 -4.881537 -3.448133 63.715541 7.189247 0.590157 1.049301 -4.162565 0.508010 9.552483 -0.450257 -6.782761 -6.246139 8.236626 -6.733095 -67.431639 -8.059218 -5.679740 -5.349897 3.998141 -0.481937 -8.044717 -2.852452 -4.994427 -0.652163 0.871621 1.462980 -0.122520 3.226884 -6.780464 1.017409 -0.000000 0.000000 0.000000 2.999544 -4.711278 -0.178751 -0.198357 0.391646 0.074425 0.790079 -6.102690 -0.424686 -0.000000 0.000000 0.000000
11.095441 99.155392 12.137412 0.593567 8.919491 0.103497 0.673900 -0.027078 -0.756763 0.398560 -13.536560 -0.380707 0.269358 -0.451707 -0.205845 0.066703 9.370166 -0.059703 -1.325276 -1.228156 0.589167 -2.471909 -2.269727 1.116980 -2.603229 -5.705654 7.851198 -4.870796 -3.469809 63.718266 7.166646 0.583361 1.045662 -4.163042 0.505569 9.549077 -0.449746 -6.762078 -6.250472 8.238017 -6.732896 -67.446955 -8.048184 -5.669025 -5.341818 3.991275 -0.485250 -8.049707 -2.858398 -4.979714 -0.664915 0.887851 1.481307 -0.098690 3.218279 -6.790076 1.010524 0.000000 -0.000000 -0.000000 2.999705 -4.701225 -0.147545 -0.198916 0.414099 0.020253 0.795151 -6.108714 -0.406496 -0.000000 -0.000000 -0.000000
11.093704 99.151906 12.144266 0.590640 8.897439 0.102716 0.669723 -0.024580 -0.752341 0.396120 -13.535361 -0.378480 0.267711 -0.450862 -0.204658 0.066291 9.370408 -0.059359 -1.323343 -1.222313 0.589374 -2.468269 -2.258890 1.117220 -2.600652 -5.685177 7.850361 -4.860105 -3.491557 63.720936 7.143719 0.576327 1.041950 -4.163479 0.503042 9.545540 -0.449203 -6.741299 -6.254785 8.239500 -6.732649 -67.462373 -8.037002 -5.658187 -5.333627 3.984342 -0.488584 -8.054748 -2.864424 -4.964962 -0.677776 0.904258 1.499724 -0.074691 3.209606 -6.799722 1.003613 0.000000 0.000000 -0.000000 2.999866 -4.691170 -0.116094 -0.199527 0.436610 -0.034307 0.800252 -6.114710 -0.388151 -0.000000 -0.000000 -0.000000
